# xmcd
#
# Track frame offsets:
#	150
#	8582
#	29682
#	51855
#	87820
#	105940
#	147337
#	159580
#
# Disc length: 2293 seconds
# Revision: 22
# Processed by: cddbd v1.5.2PL0 Copyright (c) Steve Scherf et al.
# Submitted via: dBpowerAMP V12.0
#
DISCID=5a08f308
DTITLE=Stevie Ray Vaughan and Double Trouble - Couldn't Stand the Weather
DYEAR=1984
DGENRE=Blues
TTITLE0=Scuttle Buttin'
TTITLE1=Couldn't Stand the Weather
TTITLE2=The Things (That) I Used to Do
TTITLE3=Voodoo Chile (Slight Return)
TTITLE4=Cold Shot
TTITLE5=Roughest Place in Town
TTITLE6=Honey Bee
TTITLE7=Stang's Swang
EXTD=
EXTT0=
EXTT1=
EXTT2=
EXTT3=
EXTT4=
EXTT5=
EXTT6=
EXTT7=
PLAYORDER=
